<svg width="960" height="320" viewBox="0 0 960 320" fill="none" xmlns="http://www.w3.org/2000/svg">
<rect x="0.5" y="0.5" width="959" height="319" fill="white"/>
<rect x="573.5" y="199.5" width="47" height="97" stroke="black" stroke-width="3"/>
<rect x="573.5" y="51.5" width="47" height="97" stroke="black" stroke-width="3"/>
<line x1="38.9887" y1="149.5" x2="479.989" y2="147.5" stroke="black" stroke-width="5"/>
<path d="M574.99 41V32.4688H577.398C578.141 32.4688 578.797 32.6328 579.367 32.9609C579.938 33.2891 580.377 33.7559 580.686 34.3613C580.998 34.9668 581.156 35.6621 581.16 36.4473V36.9922C581.16 37.7969 581.004 38.502 580.691 39.1074C580.383 39.7129 579.939 40.1777 579.361 40.502C578.787 40.8262 578.117 40.9922 577.352 41H574.99ZM576.115 33.3945V40.0801H577.299C578.166 40.0801 578.84 39.8105 579.32 39.2715C579.805 38.7324 580.047 37.9648 580.047 36.9688V36.4707C580.047 35.502 579.818 34.75 579.361 34.2148C578.908 33.6758 578.264 33.4023 577.428 33.3945H576.115ZM589.428 37.0098C589.428 37.8457 589.287 38.5762 589.006 39.2012C588.725 39.8223 588.326 40.2969 587.811 40.625C587.295 40.9531 586.693 41.1172 586.006 41.1172C585.334 41.1172 584.738 40.9531 584.219 40.625C583.699 40.293 583.295 39.8223 583.006 39.2129C582.721 38.5996 582.574 37.8906 582.566 37.0859V36.4707C582.566 35.6504 582.709 34.9258 582.994 34.2969C583.279 33.668 583.682 33.1875 584.201 32.8555C584.725 32.5195 585.322 32.3516 585.994 32.3516C586.678 32.3516 587.279 32.5176 587.799 32.8496C588.322 33.1777 588.725 33.6562 589.006 34.2852C589.287 34.9102 589.428 35.6387 589.428 36.4707V37.0098ZM588.309 36.459C588.309 35.4473 588.105 34.6719 587.699 34.1328C587.293 33.5898 586.725 33.3184 585.994 33.3184C585.283 33.3184 584.723 33.5898 584.312 34.1328C583.906 34.6719 583.697 35.4219 583.686 36.3828V37.0098C583.686 37.9902 583.891 38.7617 584.301 39.3242C584.715 39.8828 585.283 40.1621 586.006 40.1621C586.732 40.1621 587.295 39.8984 587.693 39.3711C588.092 38.8398 588.297 38.0801 588.309 37.0918V36.459ZM597.391 38.293C597.285 39.1953 596.951 39.8926 596.389 40.3848C595.83 40.873 595.086 41.1172 594.156 41.1172C593.148 41.1172 592.34 40.7559 591.73 40.0332C591.125 39.3105 590.822 38.3438 590.822 37.1328V36.3125C590.822 35.5195 590.963 34.8223 591.244 34.2207C591.529 33.6191 591.932 33.1582 592.451 32.8379C592.971 32.5137 593.572 32.3516 594.256 32.3516C595.162 32.3516 595.889 32.6055 596.436 33.1133C596.982 33.6172 597.301 34.3164 597.391 35.2109H596.26C596.162 34.5312 595.949 34.0391 595.621 33.7344C595.297 33.4297 594.842 33.2773 594.256 33.2773C593.537 33.2773 592.973 33.543 592.562 34.0742C592.156 34.6055 591.953 35.3613 591.953 36.3418V37.168C591.953 38.0938 592.146 38.8301 592.533 39.377C592.92 39.9238 593.461 40.1973 594.156 40.1973C594.781 40.1973 595.26 40.0566 595.592 39.7754C595.928 39.4902 596.15 38.9961 596.26 38.293H597.391ZM604.65 33.3945H601.908V41H600.789V33.3945H598.053V32.4688H604.65V33.3945ZM612.314 37.0098C612.314 37.8457 612.174 38.5762 611.893 39.2012C611.611 39.8223 611.213 40.2969 610.697 40.625C610.182 40.9531 609.58 41.1172 608.893 41.1172C608.221 41.1172 607.625 40.9531 607.105 40.625C606.586 40.293 606.182 39.8223 605.893 39.2129C605.607 38.5996 605.461 37.8906 605.453 37.0859V36.4707C605.453 35.6504 605.596 34.9258 605.881 34.2969C606.166 33.668 606.568 33.1875 607.088 32.8555C607.611 32.5195 608.209 32.3516 608.881 32.3516C609.564 32.3516 610.166 32.5176 610.686 32.8496C611.209 33.1777 611.611 33.6562 611.893 34.2852C612.174 34.9102 612.314 35.6387 612.314 36.4707V37.0098ZM611.195 36.459C611.195 35.4473 610.992 34.6719 610.586 34.1328C610.18 33.5898 609.611 33.3184 608.881 33.3184C608.17 33.3184 607.609 33.5898 607.199 34.1328C606.793 34.6719 606.584 35.4219 606.572 36.3828V37.0098C606.572 37.9902 606.777 38.7617 607.188 39.3242C607.602 39.8828 608.17 40.1621 608.893 40.1621C609.619 40.1621 610.182 39.8984 610.58 39.3711C610.979 38.8398 611.184 38.0801 611.195 37.0918V36.459ZM617.131 37.5488H615.127V41H613.996V32.4688H616.82C617.781 32.4688 618.52 32.6875 619.035 33.125C619.555 33.5625 619.814 34.1992 619.814 35.0352C619.814 35.5664 619.67 36.0293 619.381 36.4238C619.096 36.8184 618.697 37.1133 618.186 37.3086L620.189 40.9297V41H618.982L617.131 37.5488ZM615.127 36.6289H616.855C617.414 36.6289 617.857 36.4844 618.186 36.1953C618.518 35.9062 618.684 35.5195 618.684 35.0352C618.684 34.5078 618.525 34.1035 618.209 33.8223C617.896 33.541 617.443 33.3984 616.85 33.3945H615.127V36.6289Z" fill="black"/>
<path d="M875.812 186.057H872.115V189.08H876.41V190H870.99V181.469H876.352V182.395H872.115V185.137H875.812V186.057ZM880.594 184.738L882.639 181.469H883.963L881.268 185.699L884.027 190H882.691L880.594 186.672L878.484 190H877.154L879.92 185.699L877.219 181.469H878.537L880.594 184.738ZM886.541 190H885.416V181.469H886.541V190ZM894.322 182.395H891.58V190H890.461V182.395H887.725V181.469H894.322V182.395Z" fill="black"/>
<circle cx="597" cy="223" r="16" fill="#EC1818"/>
<circle cx="591.5" cy="216.5" r="1.5" fill="black"/>
<circle cx="602.5" cy="216.5" r="1.5" fill="black"/>
<rect x="587" y="223" width="20" height="10" fill="white"/>
<rect x="587" y="223" width="20" height="10" fill="white"/>
<line x1="606.68" y1="223.616" x2="612.68" y2="218.616" stroke="white"/>
<line x1="581.32" y1="218.616" x2="587.32" y2="223.616" stroke="white"/>
<line x1="606.098" y1="229.51" x2="611.098" y2="230.51" stroke="white"/>
<line x1="582.902" y1="230.51" x2="587.902" y2="229.51" stroke="white"/>
<circle cx="599.5" cy="208.5" r="4" fill="#D0D0D0" stroke="black"/>
<line x1="596.055" y1="209.497" x2="587.055" y2="210.497" stroke="black"/>
<line x1="603" y1="209.5" x2="606" y2="209.5" stroke="black"/>
<circle cx="597" cy="76" r="16" fill="#EC1818"/>
<circle cx="591.5" cy="69.5" r="1.5" fill="black"/>
<circle cx="602.5" cy="69.5" r="1.5" fill="black"/>
<rect x="587" y="76" width="20" height="10" fill="white"/>
<rect x="587" y="76" width="20" height="10" fill="white"/>
<line x1="606.68" y1="76.6159" x2="612.68" y2="71.6159" stroke="white"/>
<line x1="581.32" y1="71.6159" x2="587.32" y2="76.6164" stroke="white"/>
<line x1="606.098" y1="82.5097" x2="611.098" y2="83.5097" stroke="white"/>
<line x1="582.902" y1="83.5097" x2="587.902" y2="82.5097" stroke="white"/>
<circle cx="599.5" cy="61.5" r="4" fill="#D0D0D0" stroke="black"/>
<line x1="596.055" y1="62.4969" x2="587.055" y2="63.4969" stroke="black"/>
<line x1="603" y1="62.5" x2="606" y2="62.5" stroke="black"/>
<rect x="857" y="198" width="50" height="100" fill="black"/>
<path d="M853 303L857.818 298H906L901.182 303H853Z" fill="black" stroke="black"/>
<line x1="479.5" y1="147" x2="479.5" y2="139" stroke="black"/>
<line x1="435.5" y1="147" x2="435.5" y2="139" stroke="black"/>
<line x1="391.5" y1="147" x2="391.5" y2="139" stroke="black"/>
<line x1="347.5" y1="147" x2="347.5" y2="139" stroke="black"/>
<line x1="303.5" y1="147" x2="303.5" y2="139" stroke="black"/>
<line x1="259.5" y1="148" x2="259.5" y2="140" stroke="black"/>
<line x1="215.5" y1="148" x2="215.5" y2="140" stroke="black"/>
<line x1="171.5" y1="148" x2="171.5" y2="140" stroke="black"/>
<line x1="127.5" y1="148" x2="127.5" y2="140" stroke="black"/>
<line x1="83.5" y1="148" x2="83.5" y2="140" stroke="black"/>
<line x1="39.5" y1="148" x2="39.5" y2="140" stroke="black"/>
<line x1="38.9887" y1="295.5" x2="479.989" y2="293.5" stroke="black" stroke-width="5"/>
<line x1="479.5" y1="293" x2="479.5" y2="285" stroke="black"/>
<line x1="435.5" y1="293" x2="435.5" y2="285" stroke="black"/>
<line x1="391.5" y1="293" x2="391.5" y2="285" stroke="black"/>
<line x1="347.5" y1="293" x2="347.5" y2="285" stroke="black"/>
<line x1="303.5" y1="293" x2="303.5" y2="285" stroke="black"/>
<line x1="259.5" y1="294" x2="259.5" y2="286" stroke="black"/>
<line x1="215.5" y1="294" x2="215.5" y2="286" stroke="black"/>
<line x1="171.5" y1="294" x2="171.5" y2="286" stroke="black"/>
<line x1="127.5" y1="294" x2="127.5" y2="286" stroke="black"/>
<line x1="83.5" y1="294" x2="83.5" y2="286" stroke="black"/>
<line x1="39.5" y1="294" x2="39.5" y2="286" stroke="black"/>
<rect x="0.5" y="0.5" width="959" height="319" stroke="black"/>
</svg>
