<svg width="850" height="320" viewBox="0 0 850 320" fill="none" xmlns="http://www.w3.org/2000/svg">
<rect x="0.5" y="0.5" width="849" height="319" fill="white"/>
<rect x="566.5" y="198.5" width="47" height="97" stroke="black" stroke-width="3"/>
<rect x="566.5" y="52.5" width="47" height="97" stroke="black" stroke-width="3"/>
<line x1="38.9887" y1="149.5" x2="479.989" y2="147.5" stroke="black" stroke-width="5"/>
<path d="M566.99 42V33.4688H569.398C570.141 33.4688 570.797 33.6328 571.367 33.9609C571.938 34.2891 572.377 34.7559 572.686 35.3613C572.998 35.9668 573.156 36.6621 573.16 37.4473V37.9922C573.16 38.7969 573.004 39.502 572.691 40.1074C572.383 40.7129 571.939 41.1777 571.361 41.502C570.787 41.8262 570.117 41.9922 569.352 42H566.99ZM568.115 34.3945V41.0801H569.299C570.166 41.0801 570.84 40.8105 571.32 40.2715C571.805 39.7324 572.047 38.9648 572.047 37.9688V37.4707C572.047 36.502 571.818 35.75 571.361 35.2148C570.908 34.6758 570.264 34.4023 569.428 34.3945H568.115ZM581.428 38.0098C581.428 38.8457 581.287 39.5762 581.006 40.2012C580.725 40.8223 580.326 41.2969 579.811 41.625C579.295 41.9531 578.693 42.1172 578.006 42.1172C577.334 42.1172 576.738 41.9531 576.219 41.625C575.699 41.293 575.295 40.8223 575.006 40.2129C574.721 39.5996 574.574 38.8906 574.566 38.0859V37.4707C574.566 36.6504 574.709 35.9258 574.994 35.2969C575.279 34.668 575.682 34.1875 576.201 33.8555C576.725 33.5195 577.322 33.3516 577.994 33.3516C578.678 33.3516 579.279 33.5176 579.799 33.8496C580.322 34.1777 580.725 34.6562 581.006 35.2852C581.287 35.9102 581.428 36.6387 581.428 37.4707V38.0098ZM580.309 37.459C580.309 36.4473 580.105 35.6719 579.699 35.1328C579.293 34.5898 578.725 34.3184 577.994 34.3184C577.283 34.3184 576.723 34.5898 576.312 35.1328C575.906 35.6719 575.697 36.4219 575.686 37.3828V38.0098C575.686 38.9902 575.891 39.7617 576.301 40.3242C576.715 40.8828 577.283 41.1621 578.006 41.1621C578.732 41.1621 579.295 40.8984 579.693 40.3711C580.092 39.8398 580.297 39.0801 580.309 38.0918V37.459ZM589.391 39.293C589.285 40.1953 588.951 40.8926 588.389 41.3848C587.83 41.873 587.086 42.1172 586.156 42.1172C585.148 42.1172 584.34 41.7559 583.73 41.0332C583.125 40.3105 582.822 39.3438 582.822 38.1328V37.3125C582.822 36.5195 582.963 35.8223 583.244 35.2207C583.529 34.6191 583.932 34.1582 584.451 33.8379C584.971 33.5137 585.572 33.3516 586.256 33.3516C587.162 33.3516 587.889 33.6055 588.436 34.1133C588.982 34.6172 589.301 35.3164 589.391 36.2109H588.26C588.162 35.5312 587.949 35.0391 587.621 34.7344C587.297 34.4297 586.842 34.2773 586.256 34.2773C585.537 34.2773 584.973 34.543 584.562 35.0742C584.156 35.6055 583.953 36.3613 583.953 37.3418V38.168C583.953 39.0938 584.146 39.8301 584.533 40.377C584.92 40.9238 585.461 41.1973 586.156 41.1973C586.781 41.1973 587.26 41.0566 587.592 40.7754C587.928 40.4902 588.15 39.9961 588.26 39.293H589.391ZM596.65 34.3945H593.908V42H592.789V34.3945H590.053V33.4688H596.65V34.3945ZM604.314 38.0098C604.314 38.8457 604.174 39.5762 603.893 40.2012C603.611 40.8223 603.213 41.2969 602.697 41.625C602.182 41.9531 601.58 42.1172 600.893 42.1172C600.221 42.1172 599.625 41.9531 599.105 41.625C598.586 41.293 598.182 40.8223 597.893 40.2129C597.607 39.5996 597.461 38.8906 597.453 38.0859V37.4707C597.453 36.6504 597.596 35.9258 597.881 35.2969C598.166 34.668 598.568 34.1875 599.088 33.8555C599.611 33.5195 600.209 33.3516 600.881 33.3516C601.564 33.3516 602.166 33.5176 602.686 33.8496C603.209 34.1777 603.611 34.6562 603.893 35.2852C604.174 35.9102 604.314 36.6387 604.314 37.4707V38.0098ZM603.195 37.459C603.195 36.4473 602.992 35.6719 602.586 35.1328C602.18 34.5898 601.611 34.3184 600.881 34.3184C600.17 34.3184 599.609 34.5898 599.199 35.1328C598.793 35.6719 598.584 36.4219 598.572 37.3828V38.0098C598.572 38.9902 598.777 39.7617 599.188 40.3242C599.602 40.8828 600.17 41.1621 600.893 41.1621C601.619 41.1621 602.182 40.8984 602.58 40.3711C602.979 39.8398 603.184 39.0801 603.195 38.0918V37.459ZM609.131 38.5488H607.127V42H605.996V33.4688H608.82C609.781 33.4688 610.52 33.6875 611.035 34.125C611.555 34.5625 611.814 35.1992 611.814 36.0352C611.814 36.5664 611.67 37.0293 611.381 37.4238C611.096 37.8184 610.697 38.1133 610.186 38.3086L612.189 41.9297V42H610.982L609.131 38.5488ZM607.127 37.6289H608.855C609.414 37.6289 609.857 37.4844 610.186 37.1953C610.518 36.9062 610.684 36.5195 610.684 36.0352C610.684 35.5078 610.525 35.1035 610.209 34.8223C609.896 34.541 609.443 34.3984 608.85 34.3945H607.127V37.6289Z" fill="black"/>
<path d="M772.812 183.057H769.115V186.08H773.41V187H767.99V178.469H773.352V179.395H769.115V182.137H772.812V183.057ZM777.594 181.738L779.639 178.469H780.963L778.268 182.699L781.027 187H779.691L777.594 183.672L775.484 187H774.154L776.92 182.699L774.219 178.469H775.537L777.594 181.738ZM783.541 187H782.416V178.469H783.541V187ZM791.322 179.395H788.58V187H787.461V179.395H784.725V178.469H791.322V179.395Z" fill="black"/>
<circle cx="590" cy="222" r="16" fill="#EC1818"/>
<circle cx="584.5" cy="215.5" r="1.5" fill="black"/>
<circle cx="595.5" cy="215.5" r="1.5" fill="black"/>
<rect x="580" y="222" width="20" height="10" fill="white"/>
<rect x="580" y="222" width="20" height="10" fill="white"/>
<line x1="599.68" y1="222.616" x2="605.68" y2="217.616" stroke="white"/>
<line x1="574.32" y1="217.616" x2="580.32" y2="222.616" stroke="white"/>
<line x1="599.098" y1="228.51" x2="604.098" y2="229.51" stroke="white"/>
<line x1="575.902" y1="229.51" x2="580.902" y2="228.51" stroke="white"/>
<circle cx="592.5" cy="207.5" r="4" fill="#D0D0D0" stroke="black"/>
<line x1="589.055" y1="208.497" x2="580.055" y2="209.497" stroke="black"/>
<line x1="596" y1="208.5" x2="599" y2="208.5" stroke="black"/>
<circle cx="590" cy="77" r="16" fill="#EC1818"/>
<circle cx="584.5" cy="70.5" r="1.5" fill="black"/>
<circle cx="595.5" cy="70.5" r="1.5" fill="black"/>
<rect x="580" y="77" width="20" height="10" fill="white"/>
<rect x="580" y="77" width="20" height="10" fill="white"/>
<line x1="599.68" y1="77.6159" x2="605.68" y2="72.6159" stroke="white"/>
<line x1="574.32" y1="72.6159" x2="580.32" y2="77.6164" stroke="white"/>
<line x1="599.098" y1="83.5097" x2="604.098" y2="84.5097" stroke="white"/>
<line x1="575.902" y1="84.5097" x2="580.902" y2="83.5097" stroke="white"/>
<circle cx="592.5" cy="62.5" r="4" fill="#D0D0D0" stroke="black"/>
<line x1="589.055" y1="63.4969" x2="580.055" y2="64.4969" stroke="black"/>
<line x1="596" y1="63.5" x2="599" y2="63.5" stroke="black"/>
<rect x="754" y="195" width="50" height="100" fill="black"/>
<path d="M750 300L754.818 295H803L798.182 300H750Z" fill="black" stroke="black"/>
<line x1="479.5" y1="147" x2="479.5" y2="139" stroke="black"/>
<line x1="435.5" y1="147" x2="435.5" y2="139" stroke="black"/>
<line x1="391.5" y1="147" x2="391.5" y2="139" stroke="black"/>
<line x1="347.5" y1="147" x2="347.5" y2="139" stroke="black"/>
<line x1="303.5" y1="147" x2="303.5" y2="139" stroke="black"/>
<line x1="259.5" y1="148" x2="259.5" y2="140" stroke="black"/>
<line x1="215.5" y1="148" x2="215.5" y2="140" stroke="black"/>
<line x1="171.5" y1="148" x2="171.5" y2="140" stroke="black"/>
<line x1="127.5" y1="148" x2="127.5" y2="140" stroke="black"/>
<line x1="83.5" y1="148" x2="83.5" y2="140" stroke="black"/>
<line x1="39.5" y1="148" x2="39.5" y2="140" stroke="black"/>
<line x1="38.9887" y1="295.5" x2="479.989" y2="293.5" stroke="black" stroke-width="5"/>
<line x1="479.5" y1="293" x2="479.5" y2="285" stroke="black"/>
<line x1="435.5" y1="293" x2="435.5" y2="285" stroke="black"/>
<line x1="391.5" y1="293" x2="391.5" y2="285" stroke="black"/>
<line x1="347.5" y1="293" x2="347.5" y2="285" stroke="black"/>
<line x1="303.5" y1="293" x2="303.5" y2="285" stroke="black"/>
<line x1="259.5" y1="294" x2="259.5" y2="286" stroke="black"/>
<line x1="215.5" y1="294" x2="215.5" y2="286" stroke="black"/>
<line x1="171.5" y1="294" x2="171.5" y2="286" stroke="black"/>
<line x1="127.5" y1="294" x2="127.5" y2="286" stroke="black"/>
<line x1="83.5" y1="294" x2="83.5" y2="286" stroke="black"/>
<line x1="39.5" y1="294" x2="39.5" y2="286" stroke="black"/>
<rect x="0.5" y="0.5" width="849" height="319" stroke="black"/>
</svg>
