<svg width="16" height="59" viewBox="0 0 16 59" fill="none" xmlns="http://www.w3.org/2000/svg">
<rect width="16" height="59" fill="#B54A32"/>
<line y1="5.5" x2="16" y2="5.5" stroke="#676767"/>
<line x1="5.5" x2="5.5" y2="5" stroke="#676767"/>
<line x1="11.5" y1="6" x2="11.5" y2="11" stroke="#676767"/>
<line x1="5.5" y1="12" x2="5.5" y2="17" stroke="#676767"/>
<line x1="11.5" y1="18" x2="11.5" y2="23" stroke="#676767"/>
<line x1="5.5" y1="24" x2="5.5" y2="29" stroke="#676767"/>
<line x1="11.5" y1="30" x2="11.5" y2="35" stroke="#676767"/>
<line x1="5.5" y1="36" x2="5.5" y2="41" stroke="#676767"/>
<line x1="11.5" y1="42" x2="11.5" y2="47" stroke="#676767"/>
<line x1="5.5" y1="48" x2="5.5" y2="53" stroke="#676767"/>
<line x1="11.5" y1="54" x2="11.5" y2="59" stroke="#676767"/>
<line y1="11.5" x2="16" y2="11.5" stroke="#676767"/>
<line y1="17.5" x2="16" y2="17.5" stroke="#676767"/>
<line y1="23.5" x2="16" y2="23.5" stroke="#676767"/>
<line y1="29.5" x2="16" y2="29.5" stroke="#676767"/>
<line y1="35.5" x2="16" y2="35.5" stroke="#676767"/>
<line y1="41.5" x2="16" y2="41.5" stroke="#676767"/>
<line y1="47.5" x2="16" y2="47.5" stroke="#676767"/>
<line y1="53.5" x2="16" y2="53.5" stroke="#676767"/>
</svg>
